<?xml version="1.0"?>
<svg width="232.69525" height="71" xmlns="http://www.w3.org/2000/svg" xmlns:svg="http://www.w3.org/2000/svg" version="1.1">
 <defs id="defs10">
  <clipPath id="clip0_5935_1875">
   <rect fill="#ffffff" height="35.49" id="rect10" transform="translate(0,0.135254)" width="114" x="0" y="0"/>
  </clipPath>
 </defs>
 <g class="layer">
  <title>Layer 1</title>
  <g id="g10" transform="matrix(2.0411833,0,0,2.0411833,-4.9833653e-4,-0.27607821)">
   <path d="m31.83,2.94l-0.04,-0.23l0,0l0.04,0.23zm-0.74,0.13l0.03,0.24l0,0l-0.03,-0.24zm-0.41,0.07l0,0.23l0.02,0l0.01,0l-0.03,-0.23zm-5.53,0.01l0,-0.23l-0.24,0l0,0.23l0.24,0zm0,0.55l-0.24,0l0,0.24l0.24,0l0,-0.24zm3.11,0l0.24,0l0,-0.24l-0.24,0l0,0.24zm-0.02,24.46l0.01,0.24l0.23,0l0,-0.24l-0.24,0zm-1.54,0.01l0,0.24l0,0l0,-0.24zm-1.55,0.01l0,-0.24l-0.24,0l0,0.24l0.24,0zm0,0.55l-0.24,0l0,0.23l0.24,0l0,-0.23zm10.14,0l0,0.23l0.24,0l0,-0.23l-0.24,0zm0,-0.55l0.24,0l0,-0.24l-0.24,0l0,0.24zm-3.11,0l-0.24,0l0,0.23l0.24,0l0,-0.23zm-0.01,-25.3l0.24,0l0,-0.29l-0.29,0.05l0.05,0.24zm-20,0.84l-0.01,-0.24l0,0l0.01,0.24zm-2.11,0.23l-0.05,-0.23l0,0l0.05,0.23zm-5.86,3.02l-0.17,-0.18l0,0l0.17,0.18zm-3.86,7.68l-0.24,-0.03l0,0l0.24,0.03zm15.47,13.94l-0.08,-0.22l0,0l0.08,0.22zm2.21,-0.95l0.11,0.21l0,0l-0.11,-0.21zm1.6,-0.75l-0.07,-0.23l0,0l0.07,0.23zm0.56,-0.11l0,0.24l0,0l0,0l0,-0.24zm0.42,0.09l-0.11,0.21l0,0l0,0l0.11,-0.21zm0.3,0.2l0.16,-0.18l0,0l0,0l-0.16,0.18zm0.47,0.59l-0.2,0.12l0,0l0,0l0.2,-0.12zm0.07,0.11l-0.2,0.12l0.07,0.12l0.13,0l0,-0.24zm0.56,0l0,0.24l0.23,0l0,-0.24l-0.23,0zm0.01,-8.76l0,-0.24l-0.24,0l0,0.24l0.24,0zm0.97,-0.01l0,-0.23l0,0l0,0.23zm0.97,0l0,0.24l0.24,-0.01l0,-0.23l-0.24,0zm0,-0.55l0.24,0l0,-0.24l-0.24,0l0,0.24zm-9.3,0l0,-0.24l-0.24,0l0,0.24l0.24,0zm0,0.55l-0.24,0l0,0.24l0.24,0l0,-0.24zm4.12,0l0.24,0l0,-0.24l-0.24,0l0,0.24zm-0.16,2.86l-0.24,-0.02l0,0l0.24,0.02zm-1.35,4.5l0.2,0.13l0,0l-0.2,-0.13zm-2.02,1.82l0.11,0.21l0,0l-0.11,-0.21zm-6.75,-0.81l-0.15,0.19l0,0l0.15,-0.19zm-2.71,-4l-0.23,0.08l0,0l0.23,-0.08zm-0.93,-5.06l-0.24,0.01l0,0l0.24,-0.01zm0,-4.16l-0.24,-0.02l0,0l0.24,0.02zm2.11,-7.18l-0.19,-0.14l0,0l0.19,0.14zm4.77,-2.67l0.02,0.23l0,0l-0.02,-0.23zm1.61,0l0.02,-0.24l0,0l-0.02,0.24zm1.96,0.42l-0.08,0.22l0,0l0.08,-0.22zm1.93,1.08l0.15,-0.19l0,0l-0.15,0.19zm1.42,1.5l0.19,-0.14l0,0l-0.19,0.14zm1.43,3.7l-0.24,0.03l0,0l0.24,-0.03zm0.03,0.24l-0.24,0.03l0.03,0.2l0.2,0.01l0.01,-0.24zm0.34,0.02l-0.01,0.23l0.25,0.01l0,-0.24l-0.24,0zm0,-6.99l0.24,0l0,-0.23l-0.24,0l0,0.23zm-0.54,0l0,-0.23l-0.16,0l-0.06,0.13l0.22,0.1zm-0.1,0.21l0.21,0.1l0.01,0l0,0l-0.22,-0.1zm-1.05,0.69l-0.02,-0.24l-0.01,0l0.03,0.24zm-2.21,-0.69l-0.1,0.22l0,0l0.1,-0.22zm-2.79,-0.72l-0.02,0.24l0,0l0.02,-0.24zm63.26,8.52l-0.17,-0.16l0,0l0.17,0.16zm-1.37,3.6l-0.24,0.01l0,0l0.24,-0.01zm0.93,2.47l0.19,-0.14l0,-0.01l-0.19,0.15zm4.14,2.84l0.1,-0.22l0,0l-0.1,0.22zm3.21,1.84l-0.15,0.19l0,0l0.15,-0.19zm1.08,3.69l-0.23,-0.07l0,0l0.23,0.07zm-4.08,2.03l0,0.24l0,0l0,-0.24zm-3.68,-1.14l0.17,-0.16l0,0l-0.17,0.16zm-1.27,-4.6l0.24,0l0,-0.24l-0.24,0l0,0.24zm-0.42,0.02l-0.01,-0.24l-0.21,0.01l-0.02,0.21l0.24,0.02zm-0.17,2.79l-0.24,-0.01l0,0l0.24,0.01zm-0.17,2.86l0.23,0.01l0,0l0,-0.01l-0.23,0zm0.33,0.07l0,0.24l0.18,0l0.05,-0.18l-0.23,-0.06zm0.02,-0.09l-0.23,-0.07l0,0.01l0,0l0.23,0.06zm0.27,-0.27l0.07,0.23l0,0l0,0l-0.07,-0.23zm1.49,0.26l0.07,-0.22l0,0l-0.07,0.22zm2.56,0.59l-0.03,0.23l0,0l0.03,-0.23zm2.23,0l0.04,0.24l0,0l-0.04,-0.24zm5.52,-4.04l-0.23,-0.07l0,0l0.23,0.07zm-0.43,-4.22l0.2,-0.13l0,0l-0.2,0.13zm-1.1,-1.11l-0.14,0.19l0,0.01l0.14,-0.2zm-4.02,-2.22l-0.11,0.21l0,0l0.11,-0.21zm-2.07,-1.21l-0.15,0.19l0,0l0.15,-0.19zm-1.26,-1.46l0.22,-0.09l0,0l-0.22,0.09zm-0.19,-1.09l-0.24,0.01l0,0l0.24,-0.01zm0.03,-0.7l0.23,0.04l0,0l-0.23,-0.04zm3.38,-1.89l0.02,-0.24l0,0l-0.02,0.24zm3.92,3.81l-0.24,0.03l0,0.01l0.24,-0.04zm0.02,0.15l-0.24,0.03l0.03,0.2l0.2,0l0.01,-0.23zm0.19,0l0.01,-0.23l0,0l0,0l-0.01,0.23zm0.26,-4.22l0.24,0l0,-0.24l-0.24,0l0,0.24zm-0.34,0l0,-0.24l-0.21,0l-0.03,0.2l0.24,0.04zm-0.02,0.1l0.24,0.03l0,0l-0.24,-0.03zm-1,0.32l0.06,-0.23l-0.01,0l-0.05,0.23zm-0.88,-0.26l0.08,-0.23l-0.01,0l-0.07,0.23zm-1.99,-0.45l0.02,-0.23l0,0l0,0l-0.02,0.23zm16,-0.01l0.02,0.24l0,0l-0.02,-0.24zm-0.35,0.04l-0.02,-0.24l0,0l0,0l0.02,0.24zm-4.97,2.7l-0.19,-0.15l0,0.01l0.19,0.14zm-2.08,5.61l-0.24,-0.01l0,0l0.24,0.01zm0.04,2.2l-0.24,0.03l0,0l0.24,-0.03zm1.24,3.93l-0.2,0.12l0,0l0.2,-0.12zm1.29,1.76l0.18,-0.16l0,0l-0.18,0.16zm2.01,1.49l-0.11,0.21l0,0.01l0.11,-0.22zm3.68,0.82l0.01,-0.23l0,0l-0.01,0.23zm4.66,-1.07l-0.13,-0.19l0,0l0.13,0.19zm2.53,-2.5l0.19,0.14l0.01,0l-0.2,-0.14zm-0.1,-0.34l0.11,-0.21l0,0l-0.01,0l-0.1,0.21zm-0.24,-0.12l0.1,-0.21l-0.19,-0.1l-0.12,0.19l0.21,0.12zm-0.12,0.18l-0.2,-0.12l0,0l0.2,0.12zm-3.56,2.92l-0.08,-0.22l0,0l0.08,0.22zm-3.72,0.21l-0.07,0.23l0,0l0.07,-0.23zm-2.51,-2.28l-0.22,0.09l0,0l0.22,-0.09zm-0.9,-5.98l0.24,-0.01l0,0l-0.24,0.01zm-0.02,-0.86l0,-0.23l-0.24,0l0.01,0.24l0.23,-0.01zm11.59,0l0,0.24l0.24,0l0,-0.24l-0.24,0zm-0.02,-0.89l0.24,-0.02l0,0l-0.24,0.02zm-6.62,-7.77l0.03,-0.24l0,0l-0.03,0.24zm-0.43,0.52l0.04,-0.23l0,0l-0.04,0.23zm2.17,1.28l-0.2,0.13l0,0l0.2,-0.13zm0.92,3.96l0.24,-0.02l0,0l-0.24,0.02zm0.08,2.35l0,0.24l0.24,0l0,-0.24l-0.24,0zm-7.68,0l-0.24,-0.01l-0.01,0.25l0.25,0l0,-0.24zm0.01,-0.42l-0.24,-0.01l0,0l0.24,0.01zm0.41,-4.08l0.23,0.05l0,0l-0.23,-0.05zm0.7,-1.83l0.2,0.13l0,0l-0.2,-0.13zm0.73,-0.74l-0.14,-0.19l0,0l0.14,0.19zm1.52,-0.53l0.02,0.24l0,0l0,0l-0.02,-0.24zm12.78,13.47l-0.04,-0.23l0,0l0,0l0.04,0.23zm-1.69,1.68l0.24,0.05l0,0l-0.24,-0.05zm0.04,1.05l0.23,-0.06l0,0l-0.23,0.06zm1.51,1.46l-0.06,0.23l0,0l0.06,-0.23zm1,0.02l0.05,0.23l0,0l-0.05,-0.23zm1.67,-1.53l0.23,0.06l0,0l-0.23,-0.06zm0.03,-0.9l0.24,-0.03l0,0l0,-0.01l-0.24,0.04zm-81.95,-23.84c-0.19,0.03 -0.52,0.09 -0.74,0.13l0.07,0.47c0.23,-0.04 0.57,-0.1 0.76,-0.14l-0.09,-0.46zm-0.74,0.13l-0.41,0.06l0.07,0.47l0.41,-0.06l-0.07,-0.47zm-2.81,25.09l-1.54,0l0,0.48l1.55,-0.01l-0.01,-0.47zm-1.54,0l-1.55,0.01l0,0.47l1.55,0l0,-0.48zm5.42,-25.29l-0.33,0.07l0.09,0.46l0.34,-0.06l-0.1,-0.47zm-19.96,0.84c-0.73,0.03 -1.55,0.12 -2.15,0.24l0.1,0.46c0.56,-0.1 1.36,-0.19 2.07,-0.23l-0.02,-0.47zm-2.15,0.24c-2.28,0.45 -4.24,1.46 -5.98,3.07l0.33,0.35c1.67,-1.56 3.56,-2.52 5.75,-2.96l-0.1,-0.46zm-5.98,3.07c-2.22,2.08 -3.54,4.71 -3.93,7.83l0.48,0.06c0.37,-3.02 1.64,-5.54 3.78,-7.54l-0.33,-0.35zm-3.93,7.83c-0.09,0.72 -0.1,0.95 -0.1,2.02l0.48,0c0,-1.06 0.01,-1.27 0.1,-1.96l-0.48,-0.06zm-0.1,2.02c0,1.16 0.02,1.49 0.15,2.36l0.47,-0.07c-0.12,-0.84 -0.14,-1.14 -0.14,-2.29l-0.48,0zm0.15,2.36c0.44,2.99 1.76,5.5 3.94,7.45l0.32,-0.35c-2.09,-1.87 -3.37,-4.28 -3.79,-7.17l-0.47,0.07zm3.94,7.45c2.29,2.06 4.89,3.06 7.93,3.06l0,-0.47c-2.92,0 -5.41,-0.96 -7.61,-2.94l-0.32,0.35zm7.93,3.06c1.41,0 2.56,-0.21 3.88,-0.7l-0.17,-0.44c-1.26,0.47 -2.35,0.67 -3.71,0.67l0,0.47zm3.88,-0.7c0.87,-0.32 1.61,-0.64 2.23,-0.96l-0.22,-0.42c-0.6,0.31 -1.32,0.62 -2.18,0.94l0.17,0.44zm2.23,-0.96c1.18,-0.59 1.29,-0.65 1.57,-0.74l-0.15,-0.45c-0.32,0.11 -0.47,0.18 -1.64,0.77l0.22,0.42zm1.57,-0.74c0.14,-0.05 0.21,-0.07 0.27,-0.08c0.05,-0.01 0.1,-0.01 0.21,-0.01l0,-0.48c-0.12,0 -0.2,0.01 -0.3,0.03c-0.09,0.01 -0.19,0.05 -0.33,0.09l0.15,0.45zm0.48,-0.09c0.13,0 0.16,0 0.18,0c0.02,0.01 0.04,0.01 0.13,0.06l0.22,-0.42c-0.08,-0.05 -0.16,-0.08 -0.25,-0.1c-0.09,-0.02 -0.18,-0.02 -0.28,-0.02l0,0.48zm0.31,0.06c0.08,0.04 0.2,0.12 0.26,0.16l0.31,-0.35c-0.08,-0.08 -0.24,-0.18 -0.36,-0.24l-0.21,0.43zm0.26,0.16c0.1,0.09 0.31,0.35 0.42,0.54l0.41,-0.24c-0.13,-0.22 -0.36,-0.52 -0.52,-0.65l-0.31,0.35zm0.42,0.54l0.07,0.11l0.41,-0.24l-0.07,-0.11l-0.41,0.24zm0.84,-8.53l0.97,-0.01l0,-0.47l-0.97,0l0,0.48zm0.97,-0.01l0.97,0l0,-0.48l-0.97,0.01l0,0.47zm-4.45,-0.24l0,0.28l0.48,0l0,-0.28l-0.48,0zm0,0.28c0,0.67 -0.07,1.75 -0.16,2.56l0.48,0.05c0.09,-0.82 0.16,-1.92 0.16,-2.61l-0.48,0zm-0.16,2.56c-0.21,1.92 -0.66,3.4 -1.31,4.39l0.4,0.26c0.71,-1.08 1.17,-2.65 1.39,-4.6l-0.48,-0.05zm-1.31,4.39c-0.51,0.78 -1.16,1.36 -1.92,1.73l0.21,0.43c0.84,-0.41 1.56,-1.06 2.11,-1.9l-0.4,-0.26zm-1.92,1.73c-0.69,0.34 -1.39,0.5 -2.3,0.52l0.01,0.48c0.97,-0.03 1.74,-0.2 2.5,-0.57l-0.21,-0.43zm-2.3,0.52c-1.62,0.05 -3.01,-0.38 -4.21,-1.3l-0.29,0.38c1.29,0.98 2.79,1.45 4.51,1.4l-0.01,-0.48zm-4.2,-1.3c-0.14,-0.1 -0.37,-0.32 -0.62,-0.56c-0.24,-0.25 -0.46,-0.49 -0.58,-0.64l-0.38,0.29c0.14,0.17 0.38,0.43 0.62,0.68c0.25,0.24 0.5,0.49 0.66,0.61l0.3,-0.38zm-1.2,-1.2c-0.63,-0.81 -1.07,-1.64 -1.44,-2.68l-0.45,0.15c0.38,1.09 0.85,1.96 1.51,2.82l0.38,-0.29zm-1.44,-2.68c-0.49,-1.43 -0.78,-3 -0.91,-5.01l-0.48,0.03c0.14,2.04 0.43,3.66 0.94,5.13l0.45,-0.15zm-0.91,-5.01c-0.07,-1.13 -0.07,-3.01 0,-4.13l-0.48,-0.03c-0.07,1.14 -0.07,3.04 0,4.19l0.48,-0.03zm0,-4.13c0.22,-3.21 0.9,-5.5 2.07,-7.05l-0.39,-0.28c-1.24,1.65 -1.94,4.04 -2.16,7.3l0.48,0.03zm2.07,-7.05c1.17,-1.55 2.65,-2.38 4.59,-2.58l-0.05,-0.47c-2.07,0.21 -3.67,1.11 -4.93,2.77l0.39,0.28zm4.59,-2.58c0.33,-0.03 1.18,-0.03 1.57,0l0.04,-0.47c-0.41,-0.03 -1.29,-0.03 -1.66,0l0.05,0.47zm1.57,0c0.65,0.06 1.32,0.21 1.9,0.41l0.16,-0.44c-0.62,-0.22 -1.33,-0.38 -2.02,-0.44l-0.04,0.47zm1.9,0.41c0.61,0.22 1.34,0.63 1.86,1.04l0.3,-0.37c-0.56,-0.44 -1.34,-0.88 -2,-1.11l-0.16,0.44zm1.86,1.04c0.45,0.36 1,0.94 1.37,1.45l0.39,-0.27c-0.39,-0.54 -0.97,-1.16 -1.46,-1.55l-0.3,0.37zm1.37,1.45c0.72,1 1.23,2.29 1.39,3.6l0.47,-0.06c-0.17,-1.38 -0.7,-2.75 -1.47,-3.81l-0.39,0.27zm1.39,3.6l0.03,0.24l0.48,-0.06l-0.04,-0.24l-0.47,0.06zm-0.15,-6.86l-0.1,0.21l0.44,0.2l0.09,-0.2l-0.43,-0.21zm-0.1,0.21c-0.08,0.18 -0.19,0.3 -0.33,0.39c-0.13,0.09 -0.3,0.14 -0.52,0.16l0.04,0.48c0.28,-0.03 0.54,-0.1 0.75,-0.24c0.21,-0.15 0.38,-0.34 0.49,-0.59l-0.43,-0.2zm-0.86,0.55c-0.13,0.02 -0.32,-0.01 -0.66,-0.11c-0.33,-0.11 -0.79,-0.29 -1.43,-0.56l-0.19,0.44c0.65,0.27 1.12,0.46 1.48,0.57c0.35,0.11 0.62,0.16 0.85,0.14l-0.05,-0.48zm-2.09,-0.67c-0.98,-0.41 -1.81,-0.63 -2.86,-0.73l-0.04,0.47c1,0.1 1.78,0.3 2.71,0.7l0.19,-0.44zm-2.86,-0.73c-0.36,-0.04 -1.27,-0.07 -1.62,-0.05l0.02,0.47c0.33,-0.01 1.22,0.01 1.56,0.05l0.04,-0.47zm66.72,7c-1.54,0.15 -2.72,0.66 -3.65,1.59l0.34,0.33c0.83,-0.84 1.9,-1.31 3.36,-1.45l-0.05,-0.47zm-3.65,1.59c-1.04,1.03 -1.53,2.33 -1.44,3.77l0.48,-0.03c-0.08,-1.3 0.36,-2.47 1.3,-3.41l-0.34,-0.33zm-1.44,3.77c0.06,1 0.38,1.84 0.98,2.61l0.38,-0.3c-0.54,-0.69 -0.83,-1.44 -0.88,-2.34l-0.48,0.03zm0.98,2.61c0.36,0.45 0.72,0.78 1.38,1.27l0.29,-0.38c-0.65,-0.48 -0.97,-0.78 -1.29,-1.18l-0.38,0.29zm1.38,1.27c0.85,0.62 1.12,0.78 2.84,1.63l0.21,-0.43c-1.71,-0.84 -1.95,-0.98 -2.76,-1.58l-0.29,0.38zm2.84,1.63c1.75,0.87 2.56,1.33 3.17,1.82l0.3,-0.37c-0.66,-0.53 -1.5,-1.01 -3.26,-1.88l-0.21,0.43zm3.17,1.82c0.41,0.32 0.69,0.66 0.87,1.05c0.19,0.38 0.28,0.83 0.28,1.37l0.47,0c0,-0.59 -0.09,-1.11 -0.31,-1.58c-0.22,-0.46 -0.56,-0.86 -1.01,-1.21l-0.3,0.37zm1.15,2.42c0,0.43 -0.04,0.7 -0.15,1.01l0.46,0.15c0.12,-0.37 0.16,-0.69 0.16,-1.16l-0.47,0zm-0.15,1.01c-0.39,1.19 -1.61,1.86 -3.85,1.86l0,0.48c2.3,-0.01 3.82,-0.7 4.31,-2.19l-0.46,-0.15zm-3.85,1.86c-1.67,0 -2.81,-0.37 -3.51,-1.06l-0.34,0.33c0.83,0.83 2.12,1.21 3.85,1.21l0,-0.48zm-3.51,-1.06c-0.77,-0.76 -1.2,-2.11 -1.2,-3.96l-0.47,0c0,1.91 0.43,3.4 1.33,4.29l0.34,-0.33zm-1.2,-3.96l0,-0.48l-0.47,0l0,0.48l0.47,0zm-0.9,-0.48l-0.17,2.8l0.48,0.03l0.17,-2.8l-0.48,-0.03zm-0.17,2.8c-0.09,1.53 -0.17,2.83 -0.17,2.87l0.47,0c0,0 0.01,-0.07 0.02,-0.23c0.01,-0.15 0.02,-0.36 0.04,-0.62c0.03,-0.52 0.07,-1.22 0.12,-1.99l-0.48,-0.03zm-0.17,2.86c0,0.01 -0.01,0.06 0,0.11c0.01,0.03 0.03,0.07 0.06,0.11c0.04,0.04 0.07,0.06 0.1,0.07c0.06,0.02 0.11,0.03 0.13,0.03c0.03,0 0.07,0 0.11,0l0,-0.48c-0.04,0 -0.07,0 -0.08,0c-0.01,0 -0.01,0 -0.01,0c0,0 0.02,0 0.03,0.01c0.03,0.01 0.06,0.03 0.08,0.06c0.03,0.03 0.04,0.06 0.05,0.09c0,0.02 0,0.03 0,0.03c0,0 0,0 0,-0.01l-0.47,-0.02zm0.4,0.32l0.17,0l0,-0.48l-0.17,0l0,0.48zm0.4,-0.18l0.02,-0.09l-0.46,-0.12l-0.02,0.09l0.46,0.12zm0.02,-0.09c0,0 0,0 0,0c0.01,-0.01 0.01,-0.01 0.01,-0.02c0.01,-0.01 0.02,-0.02 0.04,-0.04c0.01,-0.01 0.02,-0.02 0.04,-0.03c0,0 0.01,-0.01 0.01,-0.01c0,0 0.01,0 0.01,0l-0.13,-0.46c-0.11,0.03 -0.21,0.1 -0.27,0.17c-0.07,0.07 -0.14,0.16 -0.17,0.26l0.46,0.13zm0.11,-0.1c0.05,-0.01 0.13,-0.02 0.35,0.01c0.21,0.04 0.52,0.12 1.01,0.25l0.13,-0.45c-0.49,-0.14 -0.82,-0.22 -1.06,-0.26c-0.23,-0.04 -0.41,-0.05 -0.57,-0.01l0.14,0.46zm1.36,0.26c1.39,0.38 1.84,0.49 2.59,0.59l0.07,-0.47c-0.72,-0.1 -1.15,-0.19 -2.53,-0.57l-0.13,0.45zm2.59,0.59c0.28,0.04 0.73,0.06 1.16,0.06c0.43,0 0.87,-0.01 1.14,-0.05l-0.07,-0.47c-0.23,0.03 -0.64,0.05 -1.07,0.05c-0.42,-0.01 -0.84,-0.03 -1.09,-0.06l-0.07,0.47zm2.3,0.01c1.77,-0.24 3.18,-0.9 4.35,-2.07l-0.34,-0.33c-1.08,1.08 -2.39,1.7 -4.08,1.93l0.07,0.47zm4.35,-2.07c0.63,-0.63 1.09,-1.35 1.35,-2.13l-0.45,-0.15c-0.24,0.71 -0.66,1.37 -1.24,1.95l0.34,0.33zm1.35,-2.13c0.2,-0.6 0.28,-1.12 0.28,-1.8l-0.48,0c0,0.64 -0.07,1.1 -0.25,1.65l0.45,0.15zm0.28,-1.8c0,-1.06 -0.22,-1.88 -0.73,-2.63l-0.4,0.26c0.45,0.67 0.65,1.39 0.65,2.37l0.48,0zm-0.73,-2.63c-0.33,-0.48 -0.68,-0.84 -1.16,-1.17l-0.28,0.39c0.44,0.3 0.75,0.61 1.04,1.04l0.4,-0.26zm-1.16,-1.17c-0.67,-0.46 -2.08,-1.25 -4.05,-2.24l-0.22,0.42c1.98,1 3.36,1.77 3.99,2.2l0.28,-0.38zm-4.05,-2.24c-1.25,-0.64 -1.46,-0.76 -2.04,-1.19l-0.29,0.38c0.62,0.46 0.85,0.59 2.11,1.23l0.22,-0.42zm-2.04,-1.19c-0.71,-0.53 -0.99,-0.87 -1.18,-1.36l-0.44,0.17c0.22,0.6 0.59,1.02 1.33,1.57l0.29,-0.38zm-1.18,-1.36c-0.13,-0.34 -0.16,-0.52 -0.17,-1.01l-0.48,0.02c0.01,0.53 0.05,0.76 0.21,1.16l0.44,-0.17zm-0.17,-1.01c-0.01,-0.36 -0.01,-0.48 0.02,-0.65l-0.47,-0.08c-0.04,0.22 -0.04,0.38 -0.03,0.75l0.48,-0.02zm0.02,-0.65c0.09,-0.5 0.26,-0.85 0.54,-1.11c0.28,-0.27 0.68,-0.45 1.23,-0.55l-0.08,-0.47c-0.62,0.11 -1.11,0.33 -1.48,0.67c-0.37,0.35 -0.58,0.81 -0.68,1.38l0.47,0.08zm1.77,-1.66c0.27,-0.05 0.96,-0.07 1.36,-0.03l0.04,-0.48c-0.42,-0.03 -1.16,-0.02 -1.48,0.04l0.08,0.47zm1.36,-0.03c1.18,0.1 2.01,0.44 2.62,1.05l0.34,-0.33c-0.72,-0.71 -1.66,-1.09 -2.92,-1.2l-0.04,0.48zm2.62,1.05c0.6,0.6 0.93,1.34 1.08,2.55l0.47,-0.06c-0.16,-1.27 -0.51,-2.13 -1.21,-2.82l-0.34,0.33zm1.08,2.56l0.02,0.14l0.47,-0.06l-0.02,-0.15l-0.47,0.07zm0.25,0.34l0.19,0.01l0.02,-0.47l-0.19,-0.01l-0.02,0.47zm0.19,0.01c0.06,0 0.12,0 0.16,0c0.03,0 0.05,0 0.07,-0.01c0.01,0 0.03,0 0.05,-0.01c0,0 0.06,-0.01 0.1,-0.06l-0.33,-0.33c0.01,-0.02 0.02,-0.03 0.03,-0.04c0.01,0 0.02,-0.01 0.03,-0.01c0.01,-0.01 0.02,-0.01 0.03,-0.01c0,0 0.01,0 0.01,0c0,0 0,0 0,0c0,0 0,0 0,0c-0.01,0 -0.01,0 -0.02,0c-0.03,0 -0.07,0 -0.11,0l-0.02,0.47zm0.38,-0.08c0.04,-0.03 0.05,-0.07 0.06,-0.08c0,-0.01 0.01,-0.02 0.01,-0.03c0,-0.01 0,-0.02 0,-0.03c0,-0.01 0,-0.01 0,-0.02c0.01,-0.01 0.01,-0.03 0.01,-0.04c0,-0.03 0,-0.08 0,-0.13c0,-0.11 0.01,-0.27 0.01,-0.46c0.01,-0.39 0.01,-0.92 0.02,-1.49l-0.48,-0.01c0,0.58 -0.01,1.11 -0.02,1.49c0,0.19 0,0.35 -0.01,0.45c0,0.06 0,0.1 0,0.13c0,0.01 0,0.02 0,0.02c0,0 0,0 0,-0.01c0,0 0,-0.01 0,-0.02c0,0 0.01,-0.01 0.01,-0.03c0.01,0 0.02,-0.04 0.06,-0.07l0.33,0.33zm0.11,-2.28l0.02,-2.1l-0.48,0l-0.02,2.09l0.48,0.01zm-0.8,-2.14l-0.02,0.1l0.48,0.07l0.01,-0.1l-0.47,-0.07zm-0.01,0.1c-0.02,0.07 -0.05,0.12 -0.15,0.15c-0.11,0.04 -0.3,0.04 -0.56,-0.02l-0.12,0.46c0.31,0.07 0.6,0.09 0.83,0.01c0.25,-0.08 0.42,-0.26 0.47,-0.53l-0.47,-0.07zm-0.72,0.13c-0.13,-0.03 -0.51,-0.15 -0.85,-0.26l-0.15,0.45c0.34,0.11 0.74,0.23 0.89,0.27l0.11,-0.46zm-0.86,-0.26c-0.88,-0.29 -1.34,-0.39 -2.04,-0.45l-0.05,0.47c0.66,0.06 1.08,0.15 1.95,0.43l0.14,-0.45zm-2.04,-0.45c-0.37,-0.04 -1.26,-0.03 -1.66,0.01l0.05,0.47c0.37,-0.04 1.23,-0.04 1.57,-0.01l0.04,-0.47zm15.95,-0.01c-0.04,0 -0.2,0.02 -0.34,0.03l0.04,0.47c0.15,-0.01 0.31,-0.03 0.35,-0.03l-0.05,-0.47zm-0.34,0.03c-1.41,0.14 -2.69,0.62 -3.77,1.41l0.29,0.38c1,-0.74 2.2,-1.19 3.52,-1.32l-0.04,-0.47zm-3.77,1.41c-0.37,0.28 -1.06,0.98 -1.37,1.39l0.39,0.28c0.27,-0.37 0.94,-1.04 1.27,-1.29l-0.29,-0.38zm-1.37,1.39c-1.28,1.7 -1.96,3.53 -2.13,5.74l0.48,0.03c0.16,-2.11 0.81,-3.86 2.04,-5.49l-0.39,-0.28zm-2.13,5.74c-0.03,0.49 -0.01,1.79 0.04,2.24l0.48,-0.05c-0.05,-0.43 -0.07,-1.69 -0.04,-2.16l-0.48,-0.03zm0.04,2.24c0.18,1.5 0.6,2.83 1.28,4.02l0.41,-0.24c-0.64,-1.12 -1.04,-2.4 -1.21,-3.83l-0.48,0.05zm1.28,4.02c0.34,0.6 0.89,1.36 1.32,1.81l0.35,-0.33c-0.4,-0.41 -0.93,-1.14 -1.26,-1.72l-0.41,0.24zm1.32,1.81c0.66,0.69 1.25,1.13 2.07,1.53l0.22,-0.42c-0.78,-0.38 -1.32,-0.78 -1.94,-1.44l-0.35,0.33zm2.07,1.54c1.15,0.56 2.29,0.81 3.79,0.84l0.01,-0.47c-1.44,-0.03 -2.51,-0.27 -3.58,-0.8l-0.22,0.43zm3.79,0.84c2.02,0.04 3.55,-0.31 4.79,-1.11l-0.26,-0.39c-1.13,0.73 -2.56,1.06 -4.52,1.03l-0.01,0.47zm4.79,-1.11c0.99,-0.64 1.82,-1.46 2.59,-2.56l-0.39,-0.27c-0.74,1.06 -1.53,1.83 -2.46,2.44l0.26,0.39zm2.6,-2.56c0.03,-0.06 0.07,-0.11 0.09,-0.15c0.02,-0.02 0.03,-0.04 0.04,-0.05c0,-0.01 0.01,-0.02 0.02,-0.03c0,-0.01 0,-0.02 0.01,-0.03c0,0 0.01,-0.04 0.01,-0.09l-0.47,0c0,-0.02 0,-0.05 0,-0.05c0.01,-0.02 0.01,-0.02 0.01,-0.03c0.01,-0.01 0.01,-0.01 0.01,-0.02c0,0 0,0 0,0c-0.01,0.01 -0.01,0.02 -0.02,0.04c-0.03,0.04 -0.06,0.09 -0.1,0.14l0.4,0.27zm0.17,-0.35c0,-0.06 -0.02,-0.11 -0.03,-0.12c-0.02,-0.02 -0.03,-0.04 -0.03,-0.04c-0.02,-0.02 -0.03,-0.03 -0.03,-0.03c-0.02,-0.01 -0.03,-0.02 -0.04,-0.02c-0.01,-0.01 -0.04,-0.02 -0.06,-0.04c-0.04,-0.02 -0.11,-0.06 -0.17,-0.09l-0.22,0.42c0.06,0.03 0.12,0.06 0.16,0.09c0.02,0.01 0.03,0.02 0.04,0.02c0,0 0,0 -0.01,0c0,0 -0.01,-0.01 -0.02,-0.02c0,-0.01 -0.01,-0.02 -0.03,-0.04c0,-0.01 -0.01,-0.02 -0.02,-0.04c-0.01,-0.02 -0.01,-0.05 -0.01,-0.09l0.47,0zm-0.37,-0.34l-0.24,-0.12l-0.21,0.42l0.24,0.12l0.21,-0.42zm-0.55,-0.03l-0.11,0.18l0.4,0.25l0.12,-0.18l-0.41,-0.25zm-0.11,0.18c-0.77,1.22 -2.15,2.35 -3.44,2.82l0.16,0.45c1.4,-0.51 2.86,-1.71 3.68,-3.02l-0.4,-0.25zm-3.44,2.82c-1.12,0.41 -2.6,0.49 -3.58,0.21l-0.13,0.45c1.09,0.31 2.67,0.22 3.87,-0.21l-0.16,-0.45zm-3.57,0.21c-1.12,-0.32 -1.87,-1 -2.36,-2.15l-0.44,0.18c0.54,1.27 1.4,2.06 2.66,2.42l0.14,-0.45zm-2.36,-2.15c-0.55,-1.28 -0.83,-3.11 -0.88,-5.9l-0.48,0.01c0.06,2.8 0.34,4.71 0.92,6.07l0.44,-0.18zm-0.88,-5.9l-0.02,-0.85l-0.47,0.01l0.01,0.85l0.48,-0.01zm11.57,-0.85l0,-0.27l-0.47,0l0,0.27l0.47,0zm0,-0.27c0,-0.15 -0.01,-0.44 -0.02,-0.64l-0.48,0.03c0.01,0.19 0.03,0.47 0.03,0.61l0.47,0zm-0.02,-0.64c-0.18,-2.61 -1.06,-4.67 -2.69,-6.14l-0.32,0.35c1.51,1.37 2.36,3.3 2.53,5.82l0.48,-0.03zm-2.69,-6.14c-1.13,-1.04 -2.47,-1.63 -4.14,-1.85l-0.06,0.47c1.58,0.21 2.82,0.76 3.88,1.73l0.32,-0.35zm-4.14,-1.85c-0.16,-0.02 -0.57,-0.04 -0.96,-0.05c-0.39,0 -0.8,-0.01 -0.93,0.01l0.05,0.47c0.1,-0.01 0.46,-0.01 0.86,0c0.4,0.01 0.79,0.02 0.92,0.04l0.06,-0.47zm-0.49,1c0.93,0.12 1.55,0.5 2,1.17l0.4,-0.26c-0.53,-0.8 -1.29,-1.24 -2.33,-1.38l-0.07,0.47zm2,1.17c0.45,0.68 0.74,1.88 0.88,3.85l0.48,-0.04c-0.15,-1.97 -0.44,-3.28 -0.96,-4.07l-0.4,0.26zm0.88,3.84c0.04,0.58 0.08,1.58 0.08,2.02l0.48,0c0,-0.46 -0.04,-1.46 -0.08,-2.05l-0.48,0.03zm0.08,2.02l0,0.32l0.48,0l0,-0.32l-0.48,0zm-7.2,0.33l0.01,-0.42l-0.48,-0.02l-0.01,0.42l0.48,0.02zm0.01,-0.42c0.07,-1.9 0.18,-3.07 0.4,-4.04l-0.47,-0.1c-0.22,1.01 -0.34,2.21 -0.41,4.12l0.48,0.02zm0.4,-4.04c0.17,-0.8 0.38,-1.32 0.67,-1.75l-0.4,-0.26c-0.34,0.49 -0.56,1.08 -0.74,1.91l0.47,0.1zm0.67,-1.75c0.06,-0.09 0.17,-0.23 0.31,-0.36c0.14,-0.14 0.27,-0.26 0.35,-0.31l-0.27,-0.39c-0.12,0.08 -0.28,0.22 -0.42,0.36c-0.14,0.15 -0.29,0.31 -0.37,0.44l0.4,0.26zm0.66,-0.67c0.38,-0.26 0.87,-0.43 1.41,-0.49l-0.05,-0.47c-0.6,0.07 -1.17,0.26 -1.63,0.57l0.27,0.39zm1.41,-0.49c0.26,-0.03 0.83,-0.02 1.09,0.01l0.07,-0.47c-0.3,-0.04 -0.92,-0.05 -1.21,-0.01l0.05,0.47zm12.72,13c-0.47,0.09 -0.91,0.33 -1.26,0.69l0.35,0.33c0.28,-0.29 0.64,-0.49 1,-0.56l-0.09,-0.46zm-1.26,0.69c-0.34,0.36 -0.53,0.71 -0.62,1.18l0.47,0.09c0.07,-0.38 0.21,-0.64 0.5,-0.94l-0.35,-0.33zm-0.62,1.17c-0.04,0.17 -0.05,0.39 -0.04,0.6c0.01,0.2 0.03,0.42 0.08,0.57l0.46,-0.13c-0.03,-0.1 -0.05,-0.27 -0.06,-0.46c-0.01,-0.19 0,-0.37 0.03,-0.48l-0.47,-0.1zm0.04,1.17c0.23,0.79 0.88,1.41 1.68,1.62l0.12,-0.46c-0.64,-0.17 -1.16,-0.67 -1.34,-1.29l-0.46,0.13zm1.68,1.62c0.32,0.08 0.81,0.09 1.11,0.02l-0.09,-0.46c-0.24,0.05 -0.65,0.04 -0.9,-0.02l-0.12,0.46zm1.11,0.02c0.89,-0.18 1.61,-0.85 1.85,-1.7l-0.46,-0.13c-0.19,0.68 -0.77,1.22 -1.49,1.37l0.1,0.46zm1.85,-1.7c0.03,-0.12 0.05,-0.31 0.06,-0.49c0,-0.18 0,-0.37 -0.02,-0.5l-0.47,0.07c0.01,0.09 0.02,0.24 0.01,0.41c-0.01,0.17 -0.03,0.32 -0.04,0.39l0.46,0.12zm0.04,-1c-0.07,-0.47 -0.28,-0.88 -0.63,-1.24l-0.34,0.33c0.28,0.29 0.44,0.61 0.5,0.99l0.47,-0.08zm-0.63,-1.24c-0.34,-0.35 -0.65,-0.55 -1.1,-0.68l-0.13,0.45c0.35,0.11 0.6,0.26 0.89,0.56l0.34,-0.33zm-1.1,-0.68c-0.31,-0.09 -0.79,-0.11 -1.11,-0.05l0.08,0.46c0.26,-0.04 0.67,-0.02 0.9,0.04l0.13,-0.45zm-81.57,-21.69l-5.53,0.02l0,0.47l5.53,-0.02l0,-0.47zm-5.77,0.25l0,0.55l0.48,0l0,-0.55l-0.48,0zm0.24,0.79l3.11,0l0,-0.48l-3.11,0l0,0.48zm2.87,-0.24l-0.01,24.46l0.47,0l0.02,-24.46l-0.48,0zm-3.11,24.48l0,0.55l0.48,0l0,-0.55l-0.48,0zm0.24,0.78l10.14,0l0,-0.47l-10.14,0l0,0.47zm10.38,-0.23l0,-0.55l-0.48,0l0,0.55l0.48,0zm-0.24,-0.79l-3.11,0l0,0.47l3.11,0l0,-0.47zm-2.87,0.24l-0.01,-25.3l-0.48,0l0.01,25.3l0.48,0zm-10.98,-0.17l0.56,0l0,-0.48l-0.56,0l0,0.48zm0.79,-0.24l0.02,-8.76l-0.48,0l-0.01,8.76l0.47,0zm1.96,-8.77l0,-0.55l-0.48,0l0,0.55l0.48,0zm-0.24,-0.79l-9.3,0l0,0.48l9.3,0l0,-0.48zm-9.54,0.24l0,0.55l0.48,0l0,-0.55l-0.48,0zm0.24,0.79l4.12,0l0,-0.48l-4.12,0l0,0.48zm5.45,-7.76l0.34,0.01l0.02,-0.47l-0.34,-0.01l-0.02,0.47zm0.59,-0.22l0,-6.99l-0.47,0l0,6.99l0.47,0zm-0.24,-7.22l-0.54,0l0,0.47l0.54,0l0,-0.47zm55.53,18.73l-0.43,0.02l0.02,0.47l0.42,-0.01l-0.01,-0.48zm10.39,-11.97l-0.34,0l0,0.48l0.34,0l0,-0.48zm8.65,8.89l11.59,0l0,-0.47l-11.59,0l0,0.47zm7.69,-1.02l-7.68,0l0,0.47l7.68,0l0,-0.47z" fill="#7f7f7f" id="path1"/>
   <path d="m31.83,2.94c-0.18,0.04 -0.52,0.1 -0.74,0.13l-0.41,0.07l-5.53,0.01l0,0.55l3.11,0l-0.02,24.46l-1.54,0.01l-1.55,0.01l0,0.55l10.14,0l0,-0.55l-3.11,0l-0.01,-25.3l-0.34,0.06z" fill="#7f7f7f" id="path2"/>
   <path d="m12.17,3.72c-0.72,0.03 -1.53,0.12 -2.11,0.23c-2.24,0.44 -4.16,1.43 -5.86,3.02c-2.19,2.03 -3.48,4.61 -3.86,7.68c-0.09,0.7 -0.1,0.93 -0.1,1.99c0,1.16 0.02,1.47 0.14,2.32c0.43,2.94 1.74,5.41 3.87,7.32c2.25,2.01 4.79,3 7.77,3c1.38,0 2.5,-0.21 3.79,-0.69c0.87,-0.32 1.6,-0.64 2.21,-0.95c1.17,-0.59 1.31,-0.66 1.6,-0.75c0.29,-0.1 0.34,-0.11 0.56,-0.11c0.23,0 0.25,0 0.42,0.09c0.1,0.04 0.24,0.14 0.3,0.2c0.13,0.11 0.35,0.39 0.47,0.59l0.07,0.11l0.56,0l0.01,-8.76l0.97,-0.01l0.97,0l0,-0.55l-9.3,0l0,0.55l4.12,0l0,0.28c0,0.68 -0.07,1.77 -0.16,2.58c-0.22,1.94 -0.67,3.47 -1.35,4.5c-0.53,0.81 -1.22,1.43 -2.02,1.82c-0.72,0.35 -1.45,0.51 -2.39,0.54c-1.68,0.05 -3.12,-0.4 -4.36,-1.35c-0.29,-0.22 -0.99,-0.92 -1.24,-1.25c-0.65,-0.83 -1.1,-1.68 -1.47,-2.75c-0.5,-1.44 -0.79,-3.04 -0.93,-5.06c-0.07,-1.15 -0.07,-3.03 0,-4.16c0.22,-3.24 0.91,-5.58 2.11,-7.18c1.22,-1.61 2.76,-2.47 4.77,-2.67c0.34,-0.04 1.21,-0.03 1.61,0c0.67,0.06 1.36,0.21 1.96,0.42c0.63,0.22 1.39,0.65 1.93,1.08c0.47,0.37 1.03,0.97 1.42,1.5c0.74,1.02 1.26,2.35 1.43,3.7l0.03,0.24l0.34,0.02l0,-6.99l-0.54,0l-0.1,0.21c-0.21,0.43 -0.54,0.65 -1.05,0.69c-0.36,0.03 -0.93,-0.14 -2.21,-0.69c-0.96,-0.41 -1.77,-0.61 -2.79,-0.72c-0.35,-0.03 -1.25,-0.06 -1.59,-0.04z" fill="#7f7f7f" id="path3"/>
   <path d="m80.52,10.76c-1.5,0.15 -2.62,0.64 -3.5,1.52c-0.99,0.99 -1.46,2.22 -1.37,3.6c0.06,0.95 0.36,1.74 0.93,2.47c0.34,0.43 0.68,0.74 1.33,1.23c0.83,0.61 1.09,0.76 2.81,1.61c1.75,0.86 2.57,1.34 3.21,1.84c0.86,0.68 1.24,1.48 1.24,2.61c0,0.45 -0.05,0.75 -0.16,1.08c-0.44,1.35 -1.81,2.03 -4.08,2.03c-1.7,0 -2.92,-0.37 -3.68,-1.14c-0.83,-0.82 -1.27,-2.24 -1.27,-4.12l0,-0.48l-0.42,0.02l-0.17,2.79c-0.09,1.54 -0.17,2.83 -0.17,2.86c-0.01,0.07 -0.01,0.07 0.16,0.07l0.17,0l0.02,-0.09c0.03,-0.11 0.16,-0.24 0.27,-0.27c0.21,-0.06 0.52,0 1.49,0.26c1.39,0.38 1.83,0.48 2.56,0.59c0.53,0.07 1.73,0.07 2.23,0c1.74,-0.23 3.09,-0.87 4.22,-1.99c0.61,-0.61 1.05,-1.3 1.3,-2.05c0.19,-0.57 0.26,-1.06 0.26,-1.72c0,-1.02 -0.21,-1.79 -0.69,-2.5c-0.31,-0.45 -0.64,-0.79 -1.1,-1.11c-0.65,-0.45 -2.05,-1.22 -4.02,-2.22c-1.26,-0.64 -1.47,-0.76 -2.07,-1.21c-0.73,-0.54 -1.05,-0.92 -1.26,-1.46c-0.14,-0.37 -0.18,-0.58 -0.19,-1.09c-0.01,-0.37 -0.01,-0.5 0.03,-0.7c0.18,-1.06 0.79,-1.64 1.96,-1.85c0.29,-0.06 1.01,-0.07 1.42,-0.04c1.22,0.1 2.1,0.46 2.77,1.13c0.65,0.64 0.99,1.44 1.15,2.68l0.02,0.15l0.19,0c0.1,0.01 0.19,0 0.2,-0.01c0.01,-0.01 0.03,-0.96 0.04,-2.11l0.02,-2.1l-0.34,0l-0.02,0.1c-0.05,0.34 -0.43,0.46 -1,0.32c-0.14,-0.03 -0.54,-0.15 -0.88,-0.26c-0.87,-0.29 -1.31,-0.38 -1.99,-0.45c-0.36,-0.03 -1.23,-0.02 -1.62,0.01z" fill="#7f7f7f" id="path4"/>
   <path d="m98.14,10.74c-0.05,0.01 -0.2,0.02 -0.35,0.04c-1.36,0.13 -2.61,0.59 -3.64,1.36c-0.36,0.26 -1.04,0.95 -1.33,1.34c-1.25,1.66 -1.91,3.46 -2.08,5.61c-0.03,0.49 -0.01,1.77 0.04,2.2c0.17,1.47 0.59,2.77 1.24,3.93c0.34,0.59 0.88,1.33 1.29,1.76c0.65,0.68 1.21,1.1 2.01,1.49c1.11,0.55 2.21,0.8 3.68,0.82c1.99,0.04 3.48,-0.3 4.66,-1.07c0.96,-0.62 1.77,-1.41 2.53,-2.5c0.07,-0.1 0.14,-0.2 0.14,-0.21c0,0 -0.11,-0.06 -0.24,-0.13l-0.24,-0.12l-0.12,0.18c-0.79,1.27 -2.21,2.44 -3.56,2.92c-1.16,0.42 -2.69,0.51 -3.72,0.21c-1.19,-0.34 -1.99,-1.07 -2.51,-2.28c-0.56,-1.32 -0.85,-3.19 -0.9,-5.98l-0.02,-0.86l11.59,0l0,-0.27c0,-0.14 -0.01,-0.43 -0.02,-0.62c-0.17,-2.57 -1.04,-4.56 -2.61,-5.99c-1.1,-1 -2.39,-1.57 -4.01,-1.78c-0.29,-0.04 -1.61,-0.07 -1.83,-0.05zm1.4,0.57c0.99,0.13 1.68,0.54 2.17,1.28c0.48,0.74 0.77,1.99 0.92,3.96c0.04,0.58 0.08,1.58 0.08,2.03l0,0.32l-7.68,0l0.01,-0.42c0.07,-1.9 0.19,-3.09 0.41,-4.08c0.17,-0.82 0.38,-1.37 0.7,-1.83c0.14,-0.22 0.52,-0.6 0.73,-0.74c0.42,-0.28 0.95,-0.46 1.52,-0.53c0.27,-0.03 0.87,-0.02 1.14,0.01z" fill="#7f7f7f" id="path5"/>
   <path d="m111.18,24.77c-0.41,0.08 -0.81,0.3 -1.12,0.63c-0.32,0.32 -0.48,0.63 -0.57,1.05c-0.06,0.28 -0.04,0.8 0.04,1.05c0.2,0.71 0.79,1.27 1.51,1.46c0.28,0.07 0.73,0.08 1,0.02c0.8,-0.17 1.45,-0.77 1.67,-1.53c0.05,-0.2 0.07,-0.67 0.03,-0.9c-0.06,-0.43 -0.25,-0.79 -0.56,-1.12c-0.32,-0.32 -0.6,-0.5 -1,-0.61c-0.27,-0.08 -0.71,-0.1 -1,-0.05z" fill="#7f7f7f" id="path6"/>
   <path d="m37.63,15.85l0.1,-0.13c0.51,-0.65 0.85,-1.03 1.32,-1.5c1.51,-1.5 3.28,-2.58 5.12,-3.11c0.4,-0.12 1.04,-0.25 1.49,-0.31c0.46,-0.05 1.49,-0.05 1.91,0c1,0.14 1.74,0.46 2.26,0.98c0.32,0.31 0.5,0.64 0.62,1.07c0.06,0.21 0.1,0.26 0.1,0.7c0,0.44 -0.04,0.51 -0.1,0.75c-0.22,0.93 -0.79,1.74 -1.76,2.53c-1.63,1.33 -4,2.19 -6.9,2.51c-0.55,0.06 -1.28,0.11 -2.09,0.14c-0.43,0.01 -0.79,0.03 -0.79,0.04c-0.08,0.08 -0.47,1.23 -0.63,1.84c-0.29,1.14 -0.41,2.03 -0.41,3.14c-0.01,0.83 0.05,1.3 0.23,1.83c0.31,0.93 0.9,1.5 1.88,1.82c0.63,0.21 1.21,0.28 2.22,0.26c1.32,-0.02 2.29,-0.21 3.49,-0.67c2.03,-0.78 3.91,-2.1 5.55,-3.89c0.83,-0.92 1.37,-1.62 2.25,-2.95c0.49,-0.76 0.52,-0.8 0.61,-1.07c0.26,-0.78 0.75,-1.86 1.18,-2.6c1.06,-1.84 2.62,-3.52 4.29,-4.63c1.46,-0.98 3.05,-1.6 4.64,-1.8c0.47,-0.05 1.49,-0.05 1.91,0c1,0.14 1.74,0.46 2.26,0.98c0.32,0.31 0.5,0.64 0.62,1.07c0.06,0.21 0.11,0.26 0.11,0.69c0.01,0.44 -0.05,0.52 -0.11,0.76c-0.22,0.93 -0.78,1.74 -1.76,2.53c-1.63,1.33 -4,2.19 -6.89,2.51c-0.56,0.06 -1.28,0.11 -2.1,0.14c-0.43,0.01 -0.79,0.03 -0.79,0.04c-0.08,0.08 -0.47,1.23 -0.63,1.84c-0.29,1.14 -0.41,2.03 -0.41,3.14c0,0.83 0.06,1.3 0.23,1.83c0.31,0.93 0.9,1.5 1.88,1.82c0.63,0.21 1.21,0.28 2.22,0.26c1.33,-0.02 2.29,-0.21 3.49,-0.67c2.04,-0.78 3.92,-2.1 5.55,-3.89c0.86,-0.94 1.38,-1.63 2.31,-3.04l0.54,-0.83l0,-19.84l-35.01,0l0,15.71z" fill="#7f7f7f" id="path7"/>
   <path d="m46.73,11.61c-1.5,0.13 -3.29,1.2 -4.77,2.83c-1.07,1.19 -2.01,2.65 -2.68,4.14l-0.06,0.13l0.27,-0.01c1.6,-0.07 2.54,-0.19 3.71,-0.48c0.5,-0.13 1.23,-0.36 1.61,-0.53c1.69,-0.71 2.94,-1.8 3.62,-3.15c0.29,-0.58 0.42,-1.01 0.42,-1.59c0,-0.3 -0.03,-0.37 -0.08,-0.49c-0.11,-0.32 -0.29,-0.51 -0.59,-0.66c-0.38,-0.18 -0.82,-0.24 -1.45,-0.19z" fill="#7f7f7f" id="path8"/>
   <path d="m65.28,11.61c-1.5,0.13 -3.29,1.2 -4.76,2.83c-1.08,1.19 -2.02,2.65 -2.69,4.14l-0.05,0.13l0.26,-0.01c1.6,-0.07 2.54,-0.19 3.71,-0.48c0.5,-0.13 1.23,-0.36 1.61,-0.53c1.69,-0.71 2.94,-1.8 3.62,-3.15c0.29,-0.58 0.4,-1.01 0.4,-1.59c0,-0.3 -0.01,-0.37 -0.05,-0.49c-0.12,-0.32 -0.3,-0.51 -0.6,-0.66c-0.38,-0.18 -0.82,-0.24 -1.45,-0.19z" fill="#7f7f7f" id="path9"/>
   <path d="m72.44,21.75c-0.62,0.94 -1.46,2.03 -2.24,2.89c-1.66,1.82 -3.49,3.12 -5.5,3.92c-1.08,0.42 -2.15,0.68 -3.31,0.8c-0.57,0.06 -1.91,0.06 -2.44,0.01c-1.51,-0.17 -2.64,-0.56 -3.53,-1.22c-1.25,-0.93 -1.87,-2.22 -1.98,-4.1c-0.03,-0.43 -0.01,-1.08 0.05,-1.51c0.01,-0.11 0.02,-0.21 0.01,-0.21c0,0 -0.09,0.11 -0.19,0.26c-0.45,0.62 -1.11,1.44 -1.67,2.05c-1.65,1.82 -3.48,3.12 -5.49,3.92c-1.09,0.42 -2.15,0.68 -3.31,0.8c-0.57,0.06 -1.91,0.06 -2.44,0.01c-0.98,-0.11 -1.81,-0.32 -2.49,-0.62c-0.14,-0.07 -0.27,-0.12 -0.27,-0.12c-0.01,0 -0.01,1.42 -0.01,3.15l0,3.14l35.01,0l0,-6.73c0,-3.7 0,-6.73 -0.01,-6.73c0,0 -0.09,0.13 -0.19,0.29z" fill="#7f7f7f" id="path10"/>
  </g>
 </g>
</svg>